<?xml version="1.0" encoding="UTF-8" standalone="no"?>
<!DOCTYPE svg PUBLIC "-//W3C//DTD SVG 1.1//EN"
 "http://www.w3.org/Graphics/SVG/1.1/DTD/svg11.dtd">
<!-- Generated by graphviz version 2.29.20120411.0446 (20120411.0446)
 -->
<!-- Title: G Pages: 1 -->
<svg width="168pt" height="691pt"
 viewBox="0.00 0.00 168.00 691.00" xmlns="http://www.w3.org/2000/svg" xmlns:xlink="http://www.w3.org/1999/xlink">
<g id="graph1" class="graph" transform="scale(1 1) rotate(0) translate(4 687)">
<title>G</title>
<polygon fill="white" stroke="white" points="-4,5 -4,-687 165,-687 165,5 -4,5"/>
<g id="graph2" class="cluster"><title>cluster_global</title>
<path fill="none" stroke="gray" d="M20,-8C20,-8 140,-8 140,-8 146,-8 152,-14 152,-20 152,-20 152,-663 152,-663 152,-669 146,-675 140,-675 140,-675 20,-675 20,-675 14,-675 8,-669 8,-663 8,-663 8,-20 8,-20 8,-14 14,-8 20,-8"/>
<text text-anchor="middle" x="80" y="-660" font-family="Times,serif" font-size="11.00" fill="gray">global</text>
</g>
<!-- \\WoopArchiveCustom -->
<g id="node2" class="node"><title>\\WoopArchiveCustom</title>
<a xlink:href="woop-archive.html" xlink:title="WoopArchiveCustom" target="_parent">
<polygon fill="none" stroke="black" points="144.218,-646 15.7816,-646 15.7816,-610 144.218,-610 144.218,-646"/>
<text text-anchor="middle" x="80" y="-623.6" font-family="Courier,monospace" font-size="11.00">WoopArchiveCustom</text>
</a>
</g>
<!-- \\WoopArchive -->
<g id="node3" class="node"><title>\\WoopArchive</title>
<a xlink:href="woop-archive.html" xlink:title="WoopArchive" target="_parent">
<polygon fill="none" stroke="black" points="124.113,-592 35.8873,-592 35.8873,-556 124.113,-556 124.113,-592"/>
<text text-anchor="middle" x="80" y="-569.6" font-family="Courier,monospace" font-size="11.00">WoopArchive</text>
</a>
</g>
<!-- \\WoopArchives -->
<g id="node4" class="node"><title>\\WoopArchives</title>
<a xlink:href="woop-archive.html" xlink:title="WoopArchives" target="_parent">
<polygon fill="none" stroke="black" points="127.713,-538 32.2869,-538 32.2869,-502 127.713,-502 127.713,-538"/>
<text text-anchor="middle" x="80" y="-515.6" font-family="Courier,monospace" font-size="11.00">WoopArchives</text>
</a>
</g>
<!-- \\WoopBookmark -->
<g id="node5" class="node"><title>\\WoopBookmark</title>
<a xlink:href="woop-bookmark.html" xlink:title="WoopBookmark" target="_parent">
<polygon fill="none" stroke="black" points="127.713,-484 32.2869,-484 32.2869,-448 127.713,-448 127.713,-484"/>
<text text-anchor="middle" x="80" y="-461.6" font-family="Courier,monospace" font-size="11.00">WoopBookmark</text>
</a>
</g>
<!-- \\WoopBookmarks -->
<g id="node6" class="node"><title>\\WoopBookmarks</title>
<a xlink:href="woop-bookmark.html" xlink:title="WoopBookmarks" target="_parent">
<polygon fill="none" stroke="black" points="130.814,-430 29.1859,-430 29.1859,-394 130.814,-394 130.814,-430"/>
<text text-anchor="middle" x="80" y="-407.6" font-family="Courier,monospace" font-size="11.00">WoopBookmarks</text>
</a>
</g>
<!-- \\WoopCategory -->
<g id="node7" class="node"><title>\\WoopCategory</title>
<a xlink:href="woop-category.html" xlink:title="WoopCategory" target="_parent">
<polygon fill="none" stroke="black" points="127.713,-376 32.2869,-376 32.2869,-340 127.713,-340 127.713,-376"/>
<text text-anchor="middle" x="80" y="-353.6" font-family="Courier,monospace" font-size="11.00">WoopCategory</text>
</a>
</g>
<!-- \\WoopCategories -->
<g id="node8" class="node"><title>\\WoopCategories</title>
<a xlink:href="woop-category.html" xlink:title="WoopCategories" target="_parent">
<polygon fill="none" stroke="black" points="134.416,-322 25.5842,-322 25.5842,-286 134.416,-286 134.416,-322"/>
<text text-anchor="middle" x="80" y="-299.6" font-family="Courier,monospace" font-size="11.00">WoopCategories</text>
</a>
</g>
<!-- \\WoopIterator -->
<g id="node9" class="node"><title>\\WoopIterator</title>
<a xlink:href="woop-iterator.html" xlink:title="WoopIterator" target="_parent">
<polygon fill="none" stroke="black" points="127.713,-268 32.2869,-268 32.2869,-232 127.713,-232 127.713,-268"/>
<text text-anchor="middle" x="80" y="-245.6" font-family="Courier,monospace" font-size="11.00">WoopIterator</text>
</a>
</g>
<!-- \\WoopPost -->
<g id="node10" class="node"><title>\\WoopPost</title>
<a xlink:href="woop-post.html" xlink:title="WoopPost" target="_parent">
<polygon fill="none" stroke="black" points="114.309,-214 45.6911,-214 45.6911,-178 114.309,-178 114.309,-214"/>
<text text-anchor="middle" x="80" y="-191.6" font-family="Courier,monospace" font-size="11.00">WoopPost</text>
</a>
</g>
<!-- \\WoopPosts -->
<g id="node11" class="node"><title>\\WoopPosts</title>
<a xlink:href="woop-post.html" xlink:title="WoopPosts" target="_parent">
<polygon fill="none" stroke="black" points="117.911,-160 42.0892,-160 42.0892,-124 117.911,-124 117.911,-160"/>
<text text-anchor="middle" x="80" y="-137.6" font-family="Courier,monospace" font-size="11.00">WoopPosts</text>
</a>
</g>
<!-- \\WoopTag -->
<g id="node12" class="node"><title>\\WoopTag</title>
<a xlink:href="woop-tag.html" xlink:title="WoopTag" target="_parent">
<polygon fill="none" stroke="black" points="111.208,-106 48.7921,-106 48.7921,-70 111.208,-70 111.208,-106"/>
<text text-anchor="middle" x="80" y="-83.6" font-family="Courier,monospace" font-size="11.00">WoopTag</text>
</a>
</g>
<!-- \\WoopTags -->
<g id="node13" class="node"><title>\\WoopTags</title>
<a xlink:href="woop-tag.html" xlink:title="WoopTags" target="_parent">
<polygon fill="none" stroke="black" points="114.309,-52 45.6911,-52 45.6911,-16 114.309,-16 114.309,-52"/>
<text text-anchor="middle" x="80" y="-29.6" font-family="Courier,monospace" font-size="11.00">WoopTags</text>
</a>
</g>
</g>
</svg>
