<?xml version="1.0" encoding="UTF-8" standalone="no"?>
<!DOCTYPE svg PUBLIC "-//W3C//DTD SVG 1.1//EN"
 "http://www.w3.org/Graphics/SVG/1.1/DTD/svg11.dtd">
<!-- Generated by graphviz version 2.29.20120411.0446 (20120411.0446)
 -->
<!-- Title: G Pages: 1 -->
<svg width="148pt" height="637pt"
 viewBox="0.00 0.00 148.00 637.00" xmlns="http://www.w3.org/2000/svg" xmlns:xlink="http://www.w3.org/1999/xlink">
<g id="graph1" class="graph" transform="scale(1 1) rotate(0) translate(4 633)">
<title>G</title>
<polygon fill="white" stroke="white" points="-4,5 -4,-633 145,-633 145,5 -4,5"/>
<g id="graph2" class="cluster"><title>cluster_global</title>
<path fill="none" stroke="gray" d="M20,-8C20,-8 120,-8 120,-8 126,-8 132,-14 132,-20 132,-20 132,-609 132,-609 132,-615 126,-621 120,-621 120,-621 20,-621 20,-621 14,-621 8,-615 8,-609 8,-609 8,-20 8,-20 8,-14 14,-8 20,-8"/>
<text text-anchor="middle" x="70" y="-606" font-family="Times,serif" font-size="11.00" fill="gray">global</text>
</g>
<!-- \\WoopArchive -->
<g id="node2" class="node"><title>\\WoopArchive</title>
<a xlink:href="woop-archive.html" xlink:title="WoopArchive" target="_parent">
<polygon fill="none" stroke="black" points="114.113,-592 25.8873,-592 25.8873,-556 114.113,-556 114.113,-592"/>
<text text-anchor="middle" x="70" y="-569.6" font-family="Courier,monospace" font-size="11.00">WoopArchive</text>
</a>
</g>
<!-- \\WoopArchives -->
<g id="node3" class="node"><title>\\WoopArchives</title>
<a xlink:href="woop-archive.html" xlink:title="WoopArchives" target="_parent">
<polygon fill="none" stroke="black" points="117.713,-538 22.2869,-538 22.2869,-502 117.713,-502 117.713,-538"/>
<text text-anchor="middle" x="70" y="-515.6" font-family="Courier,monospace" font-size="11.00">WoopArchives</text>
</a>
</g>
<!-- \\WoopBookmark -->
<g id="node4" class="node"><title>\\WoopBookmark</title>
<a xlink:href="woop-bookmark.html" xlink:title="WoopBookmark" target="_parent">
<polygon fill="none" stroke="black" points="117.713,-484 22.2869,-484 22.2869,-448 117.713,-448 117.713,-484"/>
<text text-anchor="middle" x="70" y="-461.6" font-family="Courier,monospace" font-size="11.00">WoopBookmark</text>
</a>
</g>
<!-- \\WoopBookmarks -->
<g id="node5" class="node"><title>\\WoopBookmarks</title>
<a xlink:href="woop-bookmark.html" xlink:title="WoopBookmarks" target="_parent">
<polygon fill="none" stroke="black" points="120.814,-430 19.1859,-430 19.1859,-394 120.814,-394 120.814,-430"/>
<text text-anchor="middle" x="70" y="-407.6" font-family="Courier,monospace" font-size="11.00">WoopBookmarks</text>
</a>
</g>
<!-- \\WoopCategory -->
<g id="node6" class="node"><title>\\WoopCategory</title>
<a xlink:href="woop-category.html" xlink:title="WoopCategory" target="_parent">
<polygon fill="none" stroke="black" points="117.713,-376 22.2869,-376 22.2869,-340 117.713,-340 117.713,-376"/>
<text text-anchor="middle" x="70" y="-353.6" font-family="Courier,monospace" font-size="11.00">WoopCategory</text>
</a>
</g>
<!-- \\WoopCategories -->
<g id="node7" class="node"><title>\\WoopCategories</title>
<a xlink:href="woop-category.html" xlink:title="WoopCategories" target="_parent">
<polygon fill="none" stroke="black" points="124.416,-322 15.5842,-322 15.5842,-286 124.416,-286 124.416,-322"/>
<text text-anchor="middle" x="70" y="-299.6" font-family="Courier,monospace" font-size="11.00">WoopCategories</text>
</a>
</g>
<!-- \\WoopIterator -->
<g id="node8" class="node"><title>\\WoopIterator</title>
<a xlink:href="woop-iterator.html" xlink:title="WoopIterator" target="_parent">
<polygon fill="none" stroke="black" points="117.713,-268 22.2869,-268 22.2869,-232 117.713,-232 117.713,-268"/>
<text text-anchor="middle" x="70" y="-245.6" font-family="Courier,monospace" font-size="11.00">WoopIterator</text>
</a>
</g>
<!-- \\WoopPost -->
<g id="node9" class="node"><title>\\WoopPost</title>
<a xlink:href="woop-post.html" xlink:title="WoopPost" target="_parent">
<polygon fill="none" stroke="black" points="104.309,-214 35.6911,-214 35.6911,-178 104.309,-178 104.309,-214"/>
<text text-anchor="middle" x="70" y="-191.6" font-family="Courier,monospace" font-size="11.00">WoopPost</text>
</a>
</g>
<!-- \\WoopPosts -->
<g id="node10" class="node"><title>\\WoopPosts</title>
<a xlink:href="woop-post.html" xlink:title="WoopPosts" target="_parent">
<polygon fill="none" stroke="black" points="107.911,-160 32.0892,-160 32.0892,-124 107.911,-124 107.911,-160"/>
<text text-anchor="middle" x="70" y="-137.6" font-family="Courier,monospace" font-size="11.00">WoopPosts</text>
</a>
</g>
<!-- \\WoopTag -->
<g id="node11" class="node"><title>\\WoopTag</title>
<a xlink:href="woop-tag.html" xlink:title="WoopTag" target="_parent">
<polygon fill="none" stroke="black" points="101.208,-106 38.7921,-106 38.7921,-70 101.208,-70 101.208,-106"/>
<text text-anchor="middle" x="70" y="-83.6" font-family="Courier,monospace" font-size="11.00">WoopTag</text>
</a>
</g>
<!-- \\WoopTags -->
<g id="node12" class="node"><title>\\WoopTags</title>
<a xlink:href="woop-tag.html" xlink:title="WoopTags" target="_parent">
<polygon fill="none" stroke="black" points="104.309,-52 35.6911,-52 35.6911,-16 104.309,-16 104.309,-52"/>
<text text-anchor="middle" x="70" y="-29.6" font-family="Courier,monospace" font-size="11.00">WoopTags</text>
</a>
</g>
</g>
</svg>
